<svg width="45" height="45" viewBox="0 0 45 45" fill="none" xmlns="http://www.w3.org/2000/svg">
<rect width="44.1151" height="44.1151" transform="translate(0 0.579987)" fill="white"/>
<path d="M22.0579 26.0422C23.938 26.0422 25.462 24.5181 25.462 22.6381C25.462 20.7581 23.938 19.234 22.0579 19.234C20.1779 19.234 18.6538 20.7581 18.6538 22.6381C18.6538 24.5181 20.1779 26.0422 22.0579 26.0422Z" stroke="#C7C7C7" stroke-width="2" stroke-linecap="round" stroke-linejoin="round"/>
<path d="M30.4543 26.0419C30.3032 26.3842 30.2582 26.7638 30.3249 27.1319C30.3917 27.5 30.5671 27.8397 30.8287 28.1071L30.8968 28.1752C31.1078 28.3859 31.2752 28.6362 31.3894 28.9117C31.5036 29.1872 31.5624 29.4825 31.5624 29.7808C31.5624 30.079 31.5036 30.3743 31.3894 30.6498C31.2752 30.9253 31.1078 31.1756 30.8968 31.3864C30.6861 31.5974 30.4358 31.7648 30.1603 31.879C29.8848 31.9932 29.5894 32.052 29.2912 32.052C28.993 32.052 28.6977 31.9932 28.4222 31.879C28.1467 31.7648 27.8964 31.5974 27.6856 31.3864L27.6175 31.3183C27.3501 31.0567 27.0104 30.8812 26.6423 30.8145C26.2742 30.7478 25.8946 30.7928 25.5523 30.9439C25.2167 31.0877 24.9305 31.3265 24.7289 31.631C24.5273 31.9354 24.4191 32.2921 24.4176 32.6573V32.8502C24.4176 33.452 24.1785 34.0293 23.7529 34.4549C23.3273 34.8805 22.7501 35.1196 22.1482 35.1196C21.5463 35.1196 20.9691 34.8805 20.5435 34.4549C20.1179 34.0293 19.8788 33.452 19.8788 32.8502V32.748C19.87 32.3725 19.7485 32.0082 19.5299 31.7026C19.3114 31.3971 19.0059 31.1643 18.6533 31.0346C18.3111 30.8836 17.9314 30.8385 17.5633 30.9053C17.1953 30.972 16.8556 31.1475 16.5882 31.4091L16.5201 31.4772C16.3093 31.6882 16.059 31.8556 15.7835 31.9698C15.508 32.084 15.2127 32.1428 14.9145 32.1428C14.6162 32.1428 14.3209 32.084 14.0454 31.9698C13.7699 31.8556 13.5196 31.6882 13.3089 31.4772C13.0979 31.2664 12.9305 31.0161 12.8163 30.7406C12.7021 30.4651 12.6433 30.1698 12.6433 29.8716C12.6433 29.5733 12.7021 29.278 12.8163 29.0025C12.9305 28.727 13.0979 28.4767 13.3089 28.2659L13.3769 28.1979C13.6385 27.9304 13.814 27.5908 13.8808 27.2227C13.9475 26.8546 13.9024 26.4749 13.7514 26.1327C13.6076 25.7971 13.3687 25.5109 13.0643 25.3093C12.7599 25.1076 12.4031 24.9995 12.038 24.998H11.8451C11.2432 24.998 10.666 24.7589 10.2404 24.3333C9.81478 23.9077 9.57568 23.3305 9.57568 22.7286C9.57568 22.1267 9.81478 21.5495 10.2404 21.1239C10.666 20.6983 11.2432 20.4592 11.8451 20.4592H11.9472C12.3228 20.4504 12.6871 20.3288 12.9926 20.1103C13.2982 19.8917 13.5309 19.5863 13.6606 19.2337C13.8117 18.8914 13.8567 18.5118 13.79 18.1437C13.7232 17.7756 13.5478 17.4359 13.2862 17.1685L13.2181 17.1004C13.0071 16.8897 12.8397 16.6394 12.7255 16.3639C12.6113 16.0884 12.5525 15.7931 12.5525 15.4948C12.5525 15.1966 12.6113 14.9013 12.7255 14.6258C12.8397 14.3503 13.0071 14.1 13.2181 13.8892C13.4289 13.6782 13.6791 13.5108 13.9547 13.3966C14.2302 13.2824 14.5255 13.2236 14.8237 13.2236C15.1219 13.2236 15.4172 13.2824 15.6928 13.3966C15.9683 13.5108 16.2185 13.6782 16.4293 13.8892L16.4974 13.9573C16.7648 14.2189 17.1045 14.3944 17.4726 14.4611C17.8407 14.5279 18.2203 14.4828 18.5626 14.3318H18.6533C18.9889 14.1879 19.2752 13.9491 19.4768 13.6447C19.6784 13.3402 19.7866 12.9835 19.788 12.6183V12.4254C19.788 11.8236 20.0271 11.2463 20.4527 10.8207C20.8783 10.3951 21.4556 10.156 22.0575 10.156C22.6593 10.156 23.2366 10.3951 23.6622 10.8207C24.0878 11.2463 24.3269 11.8236 24.3269 12.4254V12.5276C24.3283 12.8927 24.4365 13.2494 24.6381 13.5539C24.8397 13.8583 25.126 14.0971 25.4616 14.241C25.8038 14.392 26.1835 14.4371 26.5516 14.3703C26.9197 14.3036 27.2593 14.1281 27.5267 13.8665L27.5948 13.7984C27.8056 13.5874 28.0559 13.4201 28.3314 13.3058C28.6069 13.1916 28.9022 13.1329 29.2004 13.1329C29.4987 13.1329 29.794 13.1916 30.0695 13.3058C30.345 13.4201 30.5953 13.5874 30.806 13.7984C31.017 14.0092 31.1844 14.2595 31.2986 14.535C31.4128 14.8105 31.4716 15.1058 31.4716 15.4041C31.4716 15.7023 31.4128 15.9976 31.2986 16.2731C31.1844 16.5486 31.017 16.7989 30.806 17.0097L30.738 17.0777C30.4764 17.3452 30.3009 17.6848 30.2341 18.0529C30.1674 18.421 30.2125 18.8007 30.3635 19.1429V19.2337C30.5073 19.5693 30.7462 19.8555 31.0506 20.0571C31.355 20.2587 31.7118 20.3669 32.0769 20.3684H32.2698C32.8717 20.3684 33.4489 20.6075 33.8745 21.0331C34.3001 21.4587 34.5392 22.0359 34.5392 22.6378C34.5392 23.2397 34.3001 23.8169 33.8745 24.2425C33.4489 24.6681 32.8717 24.9072 32.2698 24.9072H32.1677C31.8026 24.9087 31.4458 25.0169 31.1414 25.2185C30.837 25.4201 30.5981 25.7063 30.4543 26.0419V26.0419Z" stroke="#C7C7C7" stroke-width="2" stroke-linecap="round" stroke-linejoin="round"/>
</svg>
