<svg width="45" height="45" viewBox="0 0 45 45" fill="none" xmlns="http://www.w3.org/2000/svg">
<rect width="44.1151" height="44.1151" transform="translate(0 0.349701)" fill="white"/>
<path d="M21.4701 23.7649L31.3401 13.8849C31.5039 13.6936 31.5895 13.4475 31.5798 13.1958C31.5701 12.9441 31.4658 12.7054 31.2877 12.5273C31.1096 12.3492 30.8708 12.2449 30.6192 12.2352C30.3675 12.2254 30.1214 12.311 29.9301 12.4749L20.8701 21.5349L12.0701 12.7349C11.8827 12.5486 11.6293 12.4441 11.3651 12.4441C11.1009 12.4441 10.8475 12.5486 10.6601 12.7349C10.5664 12.8278 10.492 12.9384 10.4412 13.0603C10.3904 13.1821 10.3643 13.3128 10.3643 13.4449C10.3643 13.5769 10.3904 13.7076 10.4412 13.8294C10.492 13.9513 10.5664 14.0619 10.6601 14.1549L20.2701 23.7649C20.4294 23.9236 20.6452 24.0128 20.8701 24.0128C21.095 24.0128 21.3108 23.9236 21.4701 23.7649Z" fill="#C7C7C7"/>
<path d="M21.4701 33.3448L31.3401 23.4648C31.5039 23.2735 31.5895 23.0275 31.5798 22.7758C31.5701 22.5241 31.4658 22.2854 31.2877 22.1073C31.1096 21.9292 30.8708 21.8249 30.6192 21.8151C30.3675 21.8054 30.1214 21.891 29.9301 22.0548L20.8701 31.1148L12.0701 22.3148C11.8827 22.1286 11.6293 22.0241 11.3651 22.0241C11.1009 22.0241 10.8475 22.1286 10.6601 22.3148C10.4739 22.5022 10.3693 22.7557 10.3693 23.0198C10.3693 23.284 10.4739 23.5375 10.6601 23.7248L20.2701 33.3448C20.4294 33.5036 20.6452 33.5928 20.8701 33.5928C21.095 33.5928 21.3108 33.5036 21.4701 33.3448Z" fill="#C7C7C7"/>
</svg>
