<svg width="45" height="45" viewBox="0 0 45 45" fill="none" xmlns="http://www.w3.org/2000/svg">
<rect width="44.1151" height="44.1151" transform="translate(0 0.464844)" fill="white"/>
<path d="M26 14.5801H28C28.5304 14.5801 29.0391 14.7908 29.4142 15.1659C29.7893 15.5409 30 16.0496 30 16.5801V30.5801C30 31.1105 29.7893 31.6192 29.4142 31.9943C29.0391 32.3694 28.5304 32.5801 28 32.5801H16C15.4696 32.5801 14.9609 32.3694 14.5858 31.9943C14.2107 31.6192 14 31.1105 14 30.5801V16.5801C14 16.0496 14.2107 15.5409 14.5858 15.1659C14.9609 14.7908 15.4696 14.5801 16 14.5801H18" stroke="#AEAEAE" stroke-width="1.5" stroke-linecap="round" stroke-linejoin="round"/>
<path d="M25 12.5801H19C18.4477 12.5801 18 13.0278 18 13.5801V15.5801C18 16.1324 18.4477 16.5801 19 16.5801H25C25.5523 16.5801 26 16.1324 26 15.5801V13.5801C26 13.0278 25.5523 12.5801 25 12.5801Z" stroke="#AEAEAE" stroke-width="1.5" stroke-linecap="round" stroke-linejoin="round"/>
</svg>
